<svg width="72" height="39" viewBox="0 0 72 39" fill="none" xmlns="http://www.w3.org/2000/svg">
<path d="M0 4L8 0V35L0 39V4Z" fill="#A1AFBE"/>
<path d="M0 4H72L55 21.5L72 39H0V4Z" fill="#B9C9D0"/>
<path d="M27.4727 25.62C27.9127 25.18 28.766 24.3267 30.0327 23.06C31.2993 21.8067 32.1127 20.9867 32.4727 20.6C32.9527 20.0667 33.2793 19.6333 33.4527 19.3C33.6393 18.9533 33.7327 18.56 33.7327 18.12C33.7327 17.6667 33.5527 17.28 33.1927 16.96C32.846 16.6267 32.386 16.46 31.8127 16.46C31.266 16.46 30.8127 16.62 30.4527 16.94C30.106 17.26 29.866 17.66 29.7327 18.14L27.3527 17.16C27.4993 16.64 27.766 16.14 28.1527 15.66C28.5527 15.1667 29.066 14.7667 29.6927 14.46C30.3193 14.1533 31.0393 14 31.8527 14C32.7593 14 33.5527 14.18 34.2327 14.54C34.9127 14.8867 35.4393 15.3667 35.8127 15.98C36.186 16.58 36.3727 17.2533 36.3727 18C36.3727 19.48 35.6527 20.9267 34.2127 22.34C33.9727 22.58 33.706 22.8467 33.4127 23.14C33.1193 23.4333 32.8127 23.7333 32.4927 24.04L30.9527 25.58L31.0327 25.7H36.5727V28H27.4727V25.62Z" fill="#191F28"/>
</svg>
