<svg width="72" height="39" viewBox="0 0 72 39" fill="none" xmlns="http://www.w3.org/2000/svg">
<path d="M0 4L8 0V35L0 39V4Z" fill="#B1A8A0"/>
<path d="M0 4H72L55 21.5L72 39H0V4Z" fill="#D6CCBE"/>
<path d="M32.0062 28.32C30.8462 28.32 29.8195 28.0133 28.9262 27.4C28.0462 26.7867 27.4395 25.8933 27.1062 24.72L29.5662 23.74C29.7395 24.4067 30.0328 24.9133 30.4462 25.26C30.8728 25.6067 31.3928 25.78 32.0062 25.78C32.5795 25.78 33.0728 25.6067 33.4862 25.26C33.8995 24.9133 34.1062 24.4733 34.1062 23.94C34.1062 23.3667 33.8795 22.9133 33.4262 22.58C32.9862 22.2333 32.3928 22.06 31.6462 22.06H30.4662V19.68H31.5462C32.1328 19.68 32.6262 19.5333 33.0262 19.24C33.4395 18.9467 33.6462 18.52 33.6462 17.96C33.6462 17.5067 33.4795 17.1333 33.1462 16.84C32.8128 16.5467 32.3795 16.4 31.8462 16.4C31.3128 16.4 30.8795 16.5467 30.5462 16.84C30.2128 17.1333 29.9795 17.5 29.8462 17.94L27.4462 16.96C27.7395 16.16 28.2595 15.4667 29.0062 14.88C29.7662 14.2933 30.7262 14 31.8862 14C32.7395 14 33.4995 14.16 34.1662 14.48C34.8328 14.8 35.3528 15.24 35.7262 15.8C36.0995 16.3467 36.2862 16.9667 36.2862 17.66C36.2862 18.3933 36.1195 19.02 35.7862 19.54C35.4528 20.06 35.0462 20.44 34.5662 20.68V20.84C35.2328 21.1067 35.7662 21.5267 36.1662 22.1C36.5795 22.6733 36.7862 23.3667 36.7862 24.18C36.7862 24.9667 36.5862 25.6733 36.1862 26.3C35.7862 26.9267 35.2195 27.42 34.4862 27.78C33.7662 28.14 32.9395 28.32 32.0062 28.32Z" fill="#191F28"/>
</svg>
