<svg width="208" height="232" viewBox="0 0 208 232" fill="none" xmlns="http://www.w3.org/2000/svg">
<path d="M208 205.494V26.5063C208 12.4429 197.6 0.936523 184.889 0.936523H23.1111C10.4 0.936523 0 12.4429 0 26.5063V205.494C0 219.558 10.4 231.064 23.1111 231.064H184.889C197.6 231.064 208 219.558 208 205.494ZM68.1778 141.314L84.1779 162.641C88.2568 168.078 96.4546 167.95 100.361 162.387L128.267 122.648C130.578 119.324 135.2 119.324 137.511 122.776L178.071 182.61C178.715 183.559 179.107 184.689 179.203 185.871C179.3 187.053 179.097 188.242 178.617 189.304C178.137 190.366 177.399 191.259 176.486 191.883C175.574 192.507 174.522 192.837 173.449 192.837H34.8978C30.0444 192.837 27.3867 186.701 30.3911 182.482L59.1644 141.57C61.36 138.246 65.7511 138.118 68.1778 141.314Z" fill="#B5B5B5"/>
</svg>
